<svg width="171" height="160" viewBox="0 0 171 160" fill="none" xmlns="http://www.w3.org/2000/svg">
<path fill-rule="evenodd" clip-rule="evenodd" d="M123 130H139V48H123V130Z" stroke="#3B2F71" stroke-width="4" stroke-linecap="round" stroke-linejoin="round"/>
<path fill-rule="evenodd" clip-rule="evenodd" d="M87 130H103V48H87V130Z" stroke="#3B2F71" stroke-width="4" stroke-linecap="round" stroke-linejoin="round"/>
<path fill-rule="evenodd" clip-rule="evenodd" d="M50 130H66V48H50V130Z" stroke="#3B2F71" stroke-width="4" stroke-linecap="round" stroke-linejoin="round"/>
<path fill-rule="evenodd" clip-rule="evenodd" d="M14 130H30V48H14V130Z" stroke="#3B2F71" stroke-width="4" stroke-linecap="round" stroke-linejoin="round"/>
<path fill-rule="evenodd" clip-rule="evenodd" d="M4.61392 145.613H147.127V130.649H4.61392V145.613Z" stroke="#3B2F71" stroke-width="4" stroke-linecap="round" stroke-linejoin="round"/>
<path fill-rule="evenodd" clip-rule="evenodd" d="M151.049 37.0568H1.99957L76.5251 2.14055L151.049 37.0568Z" stroke="#3B2F71" stroke-width="4" stroke-linecap="round" stroke-linejoin="round"/>
<path d="M151.049 47.5578H1.99957" stroke="#3B2F71" stroke-width="4" stroke-linecap="round" stroke-linejoin="round"/>
<path fill-rule="evenodd" clip-rule="evenodd" d="M108.067 66.1495H138.446C155.251 66.1495 169 79.9534 169 96.8247V127.325C169 144.196 155.251 158 138.446 158H108.067C91.2622 158 77.5131 144.196 77.5131 127.325V96.8247C77.5131 79.9534 91.2622 66.1495 108.067 66.1495Z" fill="white"/>
<path fill-rule="evenodd" clip-rule="evenodd" d="M108.067 66.1495H138.446C155.251 66.1495 169 79.9534 169 96.8247V127.325C169 144.196 155.251 158 138.446 158H108.067C91.2622 158 77.5131 144.196 77.5131 127.325V96.8247C77.5131 79.9534 91.2622 66.1495 108.067 66.1495Z" stroke="#3B2F71" stroke-width="4" stroke-linecap="round" stroke-linejoin="round"/>
<path d="M114 118.681C112.149 116.633 109.474 115.345 106.5 115.345H101.24C95.6478 115.345 91.1141 119.897 91.1141 125.511V151.437" stroke="#3B2F71" stroke-width="4" stroke-linecap="round" stroke-linejoin="round"/>
<path d="M132.218 155.164V144.595C132.218 139.094 127.776 134.635 122.296 134.635C116.817 134.635 112.375 139.094 112.375 144.595V154.705" stroke="#3B2F71" stroke-width="4" stroke-linecap="round" stroke-linejoin="round"/>
<path fill-rule="evenodd" clip-rule="evenodd" d="M122.296 134.634V134.634C116.817 134.634 112.375 130.175 112.375 124.674C112.375 119.173 116.817 114.713 122.296 114.713C127.776 114.713 132.218 119.173 132.218 124.674C132.218 130.175 127.776 134.634 122.296 134.634Z" stroke="#3B2F71" stroke-width="4" stroke-linecap="round" stroke-linejoin="round"/>
<path d="M154.895 151.197V119.821C154.895 114.205 150.363 109.653 144.769 109.653H139.509C134.717 109.653 130.703 112.995 129.652 117.484" stroke="#3B2F71" stroke-width="4" stroke-linecap="round" stroke-linejoin="round"/>
<path fill-rule="evenodd" clip-rule="evenodd" d="M103.916 112.555V112.555C97.628 112.555 92.5309 107.437 92.5309 101.126C92.5309 94.8129 97.628 89.6955 103.916 89.6955C110.202 89.6955 115.299 94.8129 115.299 101.126C115.299 107.437 110.202 112.555 103.916 112.555Z" stroke="#3B2F71" stroke-width="4" stroke-linecap="round" stroke-linejoin="round"/>
<path fill-rule="evenodd" clip-rule="evenodd" d="M142.184 106.862V106.862C135.898 106.862 130.801 101.745 130.801 95.4335C130.801 89.1206 135.898 84.0032 142.184 84.0032C148.472 84.0032 153.57 89.1206 153.57 95.4335C153.57 101.745 148.472 106.862 142.184 106.862Z" stroke="#3B2F71" stroke-width="4" stroke-linecap="round" stroke-linejoin="round"/>
</svg>
