<?xml version="1.0" encoding="UTF-8" standalone="no" ?>
<!DOCTYPE svg PUBLIC "-//W3C//DTD SVG 1.1//EN" "http://www.w3.org/Graphics/SVG/1.1/DTD/svg11.dtd">
<svg xmlns="http://www.w3.org/2000/svg" xmlns:xlink="http://www.w3.org/1999/xlink" version="1.1" width="257" height="54" viewBox="0 0 257 54" xml:space="preserve">
<desc>Created with Fabric.js 3.6.6</desc>
<defs>
</defs>
<g transform="matrix(1 0 0 1 129 26.5)"  >
<g style=""   >
		<g transform="matrix(1 0 0 1 -124 -10.5)"  >
<circle style="stroke: rgb(80,15,113); stroke-width: 1; stroke-dasharray: none; stroke-linecap: round; stroke-dashoffset: 0; stroke-linejoin: round; stroke-miterlimit: 4; fill: none; fill-rule: nonzero; opacity: 1;"  cx="0" cy="0" r="1.5" />
</g>
		<g transform="matrix(1 0 0 1 -88 3.5)"  >
<path style="stroke: rgb(9,121,141); stroke-width: 1; stroke-dasharray: none; stroke-linecap: round; stroke-dashoffset: 0; stroke-linejoin: round; stroke-miterlimit: 4; fill: none; fill-rule: nonzero; opacity: 1;"  transform=" translate(-40.5, -26.5)" d="M 0.5 26.5 H 80.5062" stroke-linecap="round" />
</g>
		<g transform="matrix(1 0 0 1 85 3.5)"  >
<path style="stroke: rgb(9,121,141); stroke-width: 1; stroke-dasharray: none; stroke-linecap: round; stroke-dashoffset: 0; stroke-linejoin: round; stroke-miterlimit: 4; fill: none; fill-rule: nonzero; opacity: 1;"  transform=" translate(-213.5, -26.5)" d="M 173.5 26.5 H 253.506" stroke-linecap="round" />
</g>
		<g transform="matrix(1 0 0 1 55.11 -14.69)"  >
<path style="stroke: rgb(243,168,2); stroke-width: 1.2; stroke-dasharray: none; stroke-linecap: round; stroke-dashoffset: 0; stroke-linejoin: round; stroke-miterlimit: 4; fill: none; fill-rule: evenodd; opacity: 1;"  transform=" translate(-183.62, -8.32)" d="M 183.115 9.71449 L 184.73 10.9638 L 184.792 9.12148 L 186.541 8.21059 L 184.581 7.48711 L 184.048 5.67486 L 182.774 7.07003 L 180.695 6.86088 L 181.868 8.44663 L 181.117 10.1296 L 183.115 9.71449 Z" stroke-linecap="round" />
</g>
		<g transform="matrix(1 0 0 1 -76.56 18.26)"  >
<path style="stroke: rgb(243,168,2); stroke-width: 1.2; stroke-dasharray: none; stroke-linecap: round; stroke-dashoffset: 0; stroke-linejoin: round; stroke-miterlimit: 4; fill: none; fill-rule: evenodd; opacity: 1;"  transform=" translate(-51.94, -41.26)" d="M 52.5906 42.961 L 50.9767 44.4293 L 50.8028 42.2151 L 48.9195 41.0858 L 50.9262 40.2561 L 51.3761 38.0899 L 52.7903 39.7913 L 54.9517 39.5818 L 53.8189 41.4631 L 54.7049 43.4998 L 52.5906 42.961 Z" stroke-linecap="round" />
</g>
		<g transform="matrix(1 0 0 1 126 -7.5)"  >
<path style="stroke: rgb(9,92,141); stroke-width: 1.2; stroke-dasharray: none; stroke-linecap: round; stroke-dashoffset: 0; stroke-linejoin: miter; stroke-miterlimit: 4; fill: none; fill-rule: nonzero; opacity: 1;"  transform=" translate(-254.5, -15.5)" d="M 253 14 L 256 17" stroke-linecap="round" />
</g>
		<g transform="matrix(1 0 0 1 126 -7.5)"  >
<path style="stroke: rgb(9,92,141); stroke-width: 1.2; stroke-dasharray: none; stroke-linecap: round; stroke-dashoffset: 0; stroke-linejoin: miter; stroke-miterlimit: 4; fill: none; fill-rule: nonzero; opacity: 1;"  transform=" translate(-254.5, -15.5)" d="M 256 14 L 253 17" stroke-linecap="round" />
</g>
		<g transform="matrix(1 0 0 1 -108 12.5)"  >
<circle style="stroke: rgb(23,191,221); stroke-width: 1.2; stroke-dasharray: none; stroke-linecap: butt; stroke-dashoffset: 0; stroke-linejoin: miter; stroke-miterlimit: 4; fill: none; fill-rule: nonzero; opacity: 1;"  cx="0" cy="0" r="1.5" />
</g>
		<g transform="matrix(1 0 0 1 -55.35 -11)"  >
<path style="stroke: rgb(243,168,2); stroke-width: 1.2; stroke-dasharray: none; stroke-linecap: round; stroke-dashoffset: 0; stroke-linejoin: round; stroke-miterlimit: 4; fill: none; fill-rule: evenodd; opacity: 1;"  transform=" translate(-73.15, -12)" d="M 73.1544 15.9502 L 69.3508 18 L 70.0772 13.6584 L 67 10.5836 L 71.2526 9.95016 L 73.1544 6 L 75.0562 9.95016 L 79.3088 10.5836 L 76.2316 13.6584 L 76.958 18 L 73.1544 15.9502 Z" stroke-linecap="round" />
</g>
		<g transform="matrix(1 0 0 1 78 -6.5)"  >
<circle style="stroke: rgb(23,191,221); stroke-width: 1.2; stroke-dasharray: none; stroke-linecap: butt; stroke-dashoffset: 0; stroke-linejoin: miter; stroke-miterlimit: 4; fill: none; fill-rule: nonzero; opacity: 1;"  cx="0" cy="0" r="1.5" />
</g>
		<g transform="matrix(1 0 0 1 100 12.5)"  >
<circle style="stroke: rgb(23,191,221); stroke-width: 1.2; stroke-dasharray: none; stroke-linecap: butt; stroke-dashoffset: 0; stroke-linejoin: miter; stroke-miterlimit: 4; fill: none; fill-rule: nonzero; opacity: 1;"  cx="0" cy="0" r="1.5" />
</g>
		<g transform="matrix(1 0 0 1 65.59 15.07)"  >
<path style="stroke: rgb(9,92,141); stroke-width: 1; stroke-dasharray: none; stroke-linecap: round; stroke-dashoffset: 0; stroke-linejoin: round; stroke-miterlimit: 4; fill: none; fill-rule: evenodd; opacity: 0.5;"  transform=" translate(-194.09, -38.07)" d="M 194.088 40.0906 L 192.18 41.1393 L 192.544 38.9181 L 191 37.345 L 193.134 37.0209 L 194.088 35 L 195.042 37.0209 L 197.176 37.345 L 195.632 38.9181 L 195.997 41.1393 L 194.088 40.0906 Z" stroke-linecap="round" />
</g>
		<g transform="matrix(1 0 0 1 -84.99 -20.4)"  >
<path style="stroke: rgb(9,92,141); stroke-width: 1; stroke-dasharray: none; stroke-linecap: round; stroke-dashoffset: 0; stroke-linejoin: round; stroke-miterlimit: 4; fill: none; fill-rule: nonzero; opacity: 0.5;"  transform=" translate(-43.51, -2.6)" d="M 43.2963 2.04052 L 43.7195 3.15931" stroke-linecap="round" />
</g>
		<g transform="matrix(1 0 0 1 -81.08 -18.64)"  >
<path style="stroke: rgb(9,92,141); stroke-width: 1; stroke-dasharray: none; stroke-linecap: round; stroke-dashoffset: 0; stroke-linejoin: round; stroke-miterlimit: 4; fill: none; fill-rule: nonzero; opacity: 0.5;"  transform=" translate(-47.42, -4.36)" d="M 46.8457 4.56575 L 47.9848 4.15013" stroke-linecap="round" />
</g>
		<g transform="matrix(1 0 0 1 -82.88 -14.81)"  >
<path style="stroke: rgb(9,92,141); stroke-width: 1; stroke-dasharray: none; stroke-linecap: round; stroke-dashoffset: 0; stroke-linejoin: round; stroke-miterlimit: 4; fill: none; fill-rule: nonzero; opacity: 0.5;"  transform=" translate(-45.62, -8.19)" d="M 45.8363 8.75336 L 45.4131 7.63457" stroke-linecap="round" />
</g>
		<g transform="matrix(1 0 0 1 -86.78 -16.56)"  >
<path style="stroke: rgb(9,92,141); stroke-width: 1; stroke-dasharray: none; stroke-linecap: round; stroke-dashoffset: 0; stroke-linejoin: round; stroke-miterlimit: 4; fill: none; fill-rule: nonzero; opacity: 0.5;"  transform=" translate(-41.72, -6.44)" d="M 42.2869 6.22813 L 41.147 6.64375" stroke-linecap="round" />
</g>
		<g transform="matrix(1 0 0 1 101.85 -17.43)"  >
<path style="stroke: rgb(9,92,141); stroke-width: 1; stroke-dasharray: none; stroke-linecap: round; stroke-dashoffset: 0; stroke-linejoin: round; stroke-miterlimit: 4; fill: none; fill-rule: nonzero; opacity: 0.5;"  transform=" translate(-230.35, -5.57)" d="M 229 5.32093 L 231.701 5.8112" stroke-linecap="round" />
</g>
		<g transform="matrix(1 0 0 1 106.65 -20.67)"  >
<path style="stroke: rgb(9,92,141); stroke-width: 1; stroke-dasharray: none; stroke-linecap: round; stroke-dashoffset: 0; stroke-linejoin: round; stroke-miterlimit: 4; fill: none; fill-rule: nonzero; opacity: 0.5;"  transform=" translate(-235.15, -2.33)" d="M 234.901 3.65034 L 235.4 1" stroke-linecap="round" />
</g>
		<g transform="matrix(1 0 0 1 110.23 -15.42)"  >
<path style="stroke: rgb(9,92,141); stroke-width: 1; stroke-dasharray: none; stroke-linecap: round; stroke-dashoffset: 0; stroke-linejoin: round; stroke-miterlimit: 4; fill: none; fill-rule: nonzero; opacity: 0.5;"  transform=" translate(-238.73, -7.57)" d="M 240.08 7.81751 L 237.38 7.32644" stroke-linecap="round" />
</g>
		<g transform="matrix(1 0 0 1 105.15 -12.72)"  >
<path style="stroke: rgb(9,92,141); stroke-width: 1; stroke-dasharray: none; stroke-linecap: round; stroke-dashoffset: 0; stroke-linejoin: round; stroke-miterlimit: 4; fill: none; fill-rule: nonzero; opacity: 0.5;"  transform=" translate(-233.65, -10.28)" d="M 233.902 8.9526 L 233.402 11.6037" stroke-linecap="round" />
</g>
</g>
</g>
<g transform="matrix(1 0 0 1 128.5 27.5)"  >
<g style=""   >
		<g transform="matrix(1 0 0 1 -0.2 5.79)"  >
<path style="stroke: rgb(9,121,141); stroke-width: 1; stroke-dasharray: none; stroke-linecap: round; stroke-dashoffset: 0; stroke-linejoin: round; stroke-miterlimit: 4; fill: none; fill-rule: nonzero; opacity: 1;"  transform=" translate(-22.31, -32.79)" d="M 42.3 31.437 L 9.25485 40.3637 C 8.00977 40.6931 6.17053 39.8768 5.82707 38.6372 L 2.31183 25.1398" stroke-linecap="round" />
</g>
		<g transform="matrix(1 0 0 1 0.14 5.2)"  >
<path style="stroke: none; stroke-width: 1; stroke-dasharray: none; stroke-linecap: butt; stroke-dashoffset: 0; stroke-linejoin: miter; stroke-miterlimit: 4; fill: rgb(9,121,141); fill-rule: nonzero; opacity: 1;"  transform=" translate(-22.64, -32.19)" d="M 44.3445 28.1384 L 43.8943 27.921 V 27.921 L 44.3445 28.1384 Z M 44.1117 27.4708 L 43.8943 27.921 L 44.1117 27.4708 Z M 43.7516 29.9937 L 44.2375 30.1115 V 30.1115 L 43.7516 29.9937 Z M 43.5445 30.8112 L 43.0623 30.6792 V 30.6792 L 43.5445 30.8112 Z M 41.9441 33.7588 L 42.2998 34.1102 L 42.2998 34.1101 L 41.9441 33.7588 Z M 41.7554 33.8786 L 41.5884 33.4074 V 33.4074 L 41.7554 33.8786 Z M 29.2782 37.4832 L 29.1497 37 L 29.2782 37.4832 Z M 29.0212 36.5168 L 29.1497 37 L 29.0212 36.5168 Z M 41.3116 32.9743 L 41.4738 33.4473 C 41.5504 33.421 41.6194 33.3765 41.675 33.3177 L 41.3116 32.9743 Z M 42.58 30.5472 L 43.0623 30.6792 V 30.6792 L 42.58 30.5472 Z M 42.7559 29.8501 L 42.2699 29.7324 L 42.7559 29.8501 Z M 43.4441 27.7036 L 43.8943 27.921 V 27.921 L 43.4441 27.7036 Z M 3.91975 21.7946 L 4.3912 21.9611 V 21.9611 L 3.91975 21.7946 Z M 3.61487 21.1566 L 3.78143 20.6851 L 3.61487 21.1566 Z M 3.66327 22.518 L 4.13443 22.6853 V 22.6853 L 3.66327 22.518 Z M 1.89619 28.646 L 1.40105 28.5764 C 1.39234 28.6384 1.39535 28.7015 1.40992 28.7624 L 1.89619 28.646 Z M 2.61473 31.7203 L 2.12765 31.8333 L 2.61473 31.7203 Z M 3.49162 35.4798 L 3.00498 35.5946 L 3.49162 35.4798 Z M 4.34292 38.9884 L 4.82749 38.8651 H 4.82749 L 4.34292 38.9884 Z M 4.66424 40.1962 L 4.18343 40.3334 V 40.3334 L 4.66424 40.1962 Z M 4.85093 40.7763 L 5.3041 40.565 L 5.3041 40.565 L 4.85093 40.7763 Z M 5.98682 41.8551 L 5.73443 42.2867 H 5.73443 L 5.98682 41.8551 Z M 7.57783 42.219 L 7.44932 41.7358 H 7.44932 L 7.57783 42.219 Z M 18.7363 39.1867 L 18.6029 38.7048 L 18.7363 39.1867 Z M 20.9504 38.5726 L 20.8167 38.0909 L 20.9504 38.5726 Z M 25.4453 37.3377 L 25.5738 37.8209 L 25.4453 37.3377 Z M 26.057 37.6924 L 26.5402 37.5639 V 37.5639 L 26.057 37.6924 Z M 25.7023 38.3041 L 25.8308 38.7873 H 25.8308 L 25.7023 38.3041 Z M 21.2234 39.5347 L 21.3571 40.0165 L 21.2234 39.5347 Z M 19.0031 40.1504 L 18.8697 39.6686 L 19.0031 40.1504 Z M 7.83485 43.1854 L 7.96336 43.6686 L 7.83485 43.1854 Z M 5.48203 42.7183 L 5.22963 43.1499 L 5.48203 42.7183 Z M 3.94461 41.1989 L 3.49145 41.4102 H 3.49145 L 3.94461 41.1989 Z M 3.70262 40.4706 L 3.2218 40.6078 L 3.70262 40.4706 Z M 3.37379 39.2349 L 3.85836 39.1117 L 3.37379 39.2349 Z M 2.51834 35.7094 L 2.0317 35.8242 L 2.51834 35.7094 Z M 1.639 31.9394 L 1.15192 32.0524 H 1.15192 L 1.639 31.9394 Z M 0.901903 28.788 L 0.415745 28.9049 H 0.415745 L 0.901903 28.788 Z M 0.892456 28.6051 L 1.38806 28.6712 H 1.38806 L 0.892456 28.6051 Z M 2.71562 22.1979 L 2.2445 22.0304 V 22.0304 L 2.71562 22.1979 Z M 2.97687 21.4614 L 2.50542 21.2949 V 21.2949 L 2.97687 21.4614 Z M 44.7948 28.3559 C 45.035 27.8585 44.8265 27.2607 44.3292 27.0205 L 43.8943 27.921 V 27.921 L 44.7948 28.3559 Z M 44.2375 30.1115 C 44.3994 29.4435 44.5339 28.896 44.7948 28.3559 L 43.8943 27.921 C 43.5799 28.5721 43.4239 29.2229 43.2657 29.8759 L 44.2375 30.1115 Z M 44.0268 30.9432 C 44.1069 30.6505 44.1743 30.3723 44.2375 30.1115 L 43.2657 29.8759 C 43.202 30.1384 43.1379 30.4028 43.0623 30.6792 L 44.0268 30.9432 Z M 42.2998 34.1101 C 43.3262 33.0712 43.7494 31.9568 44.0268 30.9432 L 43.0623 30.6792 C 42.8068 31.6125 42.4444 32.5409 41.5884 33.4074 L 42.2998 34.1101 Z M 41.9225 34.3499 C 42.0647 34.2995 42.1937 34.2175 42.2998 34.1102 L 41.5884 33.4074 L 41.5884 33.4074 L 41.9225 34.3499 Z M 29.4067 37.9664 C 31.9104 37.3005 40.092 34.9987 41.9225 34.3499 L 41.5884 33.4074 C 39.8033 34.0401 31.6631 36.3316 29.1497 37 L 29.4067 37.9664 Z M 28.1833 37.257 C 28.3253 37.7907 28.873 38.1084 29.4067 37.9664 L 29.1497 37 L 28.1833 37.257 Z M 28.8927 36.0336 C 28.359 36.1755 28.0414 36.7233 28.1833 37.257 L 29.1497 37 L 28.8927 36.0336 Z M 41.1493 32.5014 C 39.2027 33.1694 31.3642 35.3763 28.8927 36.0336 L 29.1497 37 C 31.6167 36.3439 39.4886 34.1285 41.4738 33.4473 L 41.1493 32.5014 Z M 42.0977 30.4152 C 41.8721 31.2397 41.5831 31.9588 40.9481 32.631 L 41.675 33.3177 C 42.4698 32.4764 42.816 31.579 43.0623 30.6792 L 42.0977 30.4152 Z M 42.2699 29.7324 C 42.2112 29.9747 42.1563 30.2012 42.0977 30.4152 L 43.0623 30.6792 C 43.1254 30.4484 43.1838 30.2071 43.2418 29.9678 L 42.2699 29.7324 Z M 42.9938 27.4861 C 42.6294 28.2408 42.4364 29.0452 42.2699 29.7324 L 43.2418 29.9678 C 43.412 29.265 43.5836 28.5644 43.8943 27.921 L 42.9938 27.4861 Z M 44.3292 27.0205 C 43.8318 26.7803 43.234 26.9888 42.9938 27.4862 L 43.8943 27.921 L 43.8943 27.921 L 44.3292 27.0205 Z M 4.3912 21.9611 C 4.57517 21.4404 4.30217 20.8691 3.78143 20.6851 L 3.44831 21.628 V 21.628 L 4.3912 21.9611 Z M 4.13443 22.6853 C 4.21873 22.448 4.30448 22.2066 4.3912 21.9611 L 3.44831 21.628 C 3.36192 21.8725 3.27645 22.1132 3.19211 22.3506 L 4.13443 22.6853 Z M 2.39132 28.7155 C 2.65094 26.8678 3.3214 24.9743 4.13443 22.6853 L 3.19211 22.3506 C 2.38798 24.6146 1.6775 26.6089 1.40105 28.5764 L 2.39132 28.7155 Z M 3.1018 31.6073 C 2.81647 30.377 2.56201 29.2797 2.38245 28.5296 L 1.40992 28.7624 C 1.58845 29.5082 1.84196 30.6013 2.12765 31.8333 L 3.1018 31.6073 Z M 3.97826 35.365 C 3.68291 34.1131 3.37776 32.7973 3.1018 31.6073 L 2.12765 31.8333 C 2.40354 33.0229 2.70911 34.3405 3.00498 35.5946 L 3.97826 35.365 Z M 4.82749 38.8651 C 4.58325 37.9051 4.28609 36.6697 3.97826 35.365 L 3.00498 35.5946 C 3.31311 36.9006 3.6119 38.1429 3.85836 39.1117 L 4.82749 38.8651 Z M 5.14506 40.0591 C 5.0572 39.7511 4.94976 39.3457 4.82749 38.8651 L 3.85836 39.1117 C 3.98159 39.596 4.09174 40.012 4.18343 40.3334 L 5.14506 40.0591 Z M 5.3041 40.565 C 5.30571 40.5685 5.30195 40.5605 5.29216 40.5337 C 5.28323 40.5092 5.27159 40.4755 5.2572 40.4313 C 5.22845 40.343 5.19099 40.2201 5.14506 40.0591 L 4.18343 40.3334 C 4.27492 40.6541 4.34826 40.8814 4.39777 40.9876 L 5.3041 40.565 Z M 6.23922 41.4235 C 5.71587 41.1174 5.38475 40.738 5.3041 40.565 L 4.39777 40.9876 C 4.59537 41.4114 5.11186 41.9227 5.73443 42.2867 L 6.23922 41.4235 Z M 7.44932 41.7358 C 7.20306 41.8013 6.76348 41.73 6.23922 41.4235 L 5.73443 42.2867 C 6.35737 42.651 7.08555 42.8673 7.70634 42.7022 L 7.44932 41.7358 Z M 18.6029 38.7048 C 15.6322 39.5272 11.9199 40.5468 7.44932 41.7358 L 7.70634 42.7022 C 12.1813 41.5121 15.8971 40.4915 18.8697 39.6686 L 18.6029 38.7048 Z M 20.8167 38.0909 C 20.1306 38.2813 19.3928 38.4862 18.6029 38.7048 L 18.8697 39.6686 C 19.66 39.4498 20.3981 39.2449 21.0842 39.0544 L 20.8167 38.0909 Z M 25.3168 36.8545 C 24.2087 37.1492 22.7081 37.5658 20.8167 38.0909 L 21.0842 39.0544 C 22.9779 38.5287 24.4722 38.1139 25.5738 37.8209 L 25.3168 36.8545 Z M 26.5402 37.5639 C 26.3982 37.0301 25.8505 36.7125 25.3168 36.8545 L 25.5738 37.8209 H 25.5738 L 26.5402 37.5639 Z M 25.8308 38.7873 C 26.3645 38.6454 26.6821 38.0976 26.5402 37.5639 L 25.5738 37.8209 L 25.5738 37.8209 L 25.8308 38.7873 Z M 21.3571 40.0165 C 23.2483 39.4914 24.7348 39.0788 25.8308 38.7873 L 25.5738 37.8209 C 24.4712 38.1141 22.9785 38.5285 21.0896 39.0529 L 21.3571 40.0165 Z M 19.1365 40.6323 C 19.93 40.4126 20.6701 40.2072 21.3571 40.0165 L 21.0896 39.0529 C 20.4026 39.2436 19.6628 39.449 18.8697 39.6686 L 19.1365 40.6323 Z M 7.96336 43.6686 C 12.4428 42.4773 16.1621 41.4557 19.1365 40.6323 L 18.8697 39.6686 C 15.8971 40.4915 12.1813 41.5121 7.70634 42.7022 L 7.96336 43.6686 Z M 5.22963 43.1499 C 5.94943 43.5709 6.96674 43.9337 7.96336 43.6686 L 7.70634 42.7022 C 7.08543 42.8673 6.35721 42.6509 5.73443 42.2867 L 5.22963 43.1499 Z M 3.49145 41.4102 C 3.80614 42.0851 4.5083 42.7281 5.22963 43.1499 L 5.73443 42.2867 C 5.11189 41.9227 4.59538 41.4114 4.39777 40.9876 L 3.49145 41.4102 Z M 3.2218 40.6078 C 3.3089 40.9131 3.40246 41.2193 3.49145 41.4102 L 4.39777 40.9876 C 4.34828 40.8814 4.27496 40.6543 4.18343 40.3334 L 3.2218 40.6078 Z M 2.88923 39.3582 C 3.01342 39.8464 3.12627 40.2729 3.2218 40.6078 L 4.18343 40.3334 C 4.09174 40.012 3.98159 39.596 3.85836 39.1117 L 2.88923 39.3582 Z M 2.0317 35.8242 C 2.34013 37.1315 2.64054 38.3807 2.88923 39.3582 L 3.85836 39.1117 C 3.6119 38.1429 3.31311 36.9006 3.00498 35.5946 L 2.0317 35.8242 Z M 1.15192 32.0524 C 1.42746 33.2405 1.73335 34.5596 2.0317 35.8242 L 3.00498 35.5946 C 2.70715 34.3322 2.40169 33.015 2.12607 31.8264 L 1.15192 32.0524 Z M 0.415745 28.9049 C 0.595003 29.6508 0.855717 30.775 1.15192 32.0524 L 2.12607 31.8264 C 1.8303 30.551 1.56849 29.422 1.38806 28.6712 L 0.415745 28.9049 Z M 0.396851 28.5389 C 0.380553 28.661 0.386959 28.7851 0.415745 28.9049 L 1.38806 28.6712 L 1.38806 28.6712 L 0.396851 28.5389 Z M 2.2445 22.0304 C 1.43544 24.3063 0.678343 26.4299 0.396851 28.5389 L 1.38806 28.6712 C 1.65305 26.6858 2.36912 24.6653 3.18673 22.3654 L 2.2445 22.0304 Z M 2.50542 21.2949 C 2.41797 21.5424 2.3309 21.7874 2.2445 22.0304 L 3.18673 22.3654 C 3.27308 22.1225 3.36048 21.8766 3.44831 21.628 L 2.50542 21.2949 Z M 3.78143 20.6851 C 3.26068 20.5011 2.6894 20.7741 2.50542 21.2949 L 3.44831 21.628 V 21.628 L 3.78143 20.6851 Z" stroke-linecap="round" />
</g>
		<g transform="matrix(1 0 0 1 1.46 17.12)"  >
<path style="stroke: rgb(9,121,141); stroke-width: 1; stroke-dasharray: none; stroke-linecap: round; stroke-dashoffset: 0; stroke-linejoin: round; stroke-miterlimit: 4; fill: none; fill-rule: evenodd; opacity: 1;"  transform=" translate(-23.96, -44.12)" d="M 29.9217 48.0175 C 32.1683 43.8313 30.2312 39.8174 28.2289 35.23 L 25.5738 35.918 C 26.7756 38.6716 25.4174 41.9388 23.5833 41.9783 C 21.8462 42.0155 20.2674 43.7163 21.829 45.5968 C 19.5947 44.7188 18.0208 47.9025 19.9421 48.911 C 15.6465 49.25 16.4408 53.6171 19.8426 52.926 C 23.2445 52.2361 27.6738 52.2025 29.9217 48.0175 Z" stroke-linecap="round" />
</g>
		<g transform="matrix(1 0 0 1 -9.11 -19.24)"  >
<path style="stroke: rgb(9,121,141); stroke-width: 1; stroke-dasharray: none; stroke-linecap: round; stroke-dashoffset: 0; stroke-linejoin: round; stroke-miterlimit: 4; fill: none; fill-rule: nonzero; opacity: 1;"  transform=" translate(-13.39, -7.76)" d="M 22.8943 13.7123 C 22.324 8.40442 21.9438 4.86586 17.6764 2.09527 C 13.4076 -0.674037 9.31477 1.54654 5.82193 2.63118 C 2.3291 3.71583 3.89383 8.20313 8.02419 6.33513 C 6.78664 8.2557 9.90833 10.4301 11.5028 8.47365 C 11.0554 11.025 13.4012 11.8135 15.0189 10.9648 C 16.7272 10.0686 19.4157 11.5737 19.7584 14.7584" stroke-linecap="round" />
</g>
		<g transform="matrix(1 0 0 1 1.4 -2.75)"  >
<path style="stroke: rgb(9,121,141); stroke-width: 1; stroke-dasharray: none; stroke-linecap: round; stroke-dashoffset: 0; stroke-linejoin: round; stroke-miterlimit: 4; fill: none; fill-rule: evenodd; opacity: 1;"  transform=" translate(-23.89, -24.26)" d="M 3.67128 22.7161 C 3.24172 21.1201 4.18393 19.4774 5.77841 19.0423 L 36.8953 10.551 C 38.4976 10.1137 40.1503 11.0616 40.5819 12.6655 L 44.1173 25.8008 C 44.5469 27.3967 43.6046 29.0395 42.0102 29.4746 L 10.8933 37.9659 C 9.29096 38.4032 7.6383 37.4553 7.20662 35.8514 L 3.67128 22.7161 Z" stroke-linecap="round" />
</g>
		<g transform="matrix(1 0 0 1 -16 -5)"  >
<path style="stroke: rgb(9,121,141); stroke-width: 1; stroke-dasharray: none; stroke-linecap: round; stroke-dashoffset: 0; stroke-linejoin: round; stroke-miterlimit: 4; fill: none; fill-rule: nonzero; opacity: 1;"  transform=" translate(-6.5, -22)" d="M 7.84424 19 C 8.46174 21.6412 7.18803 24.328 5 25" stroke-linecap="round" />
</g>
		<g transform="matrix(1 0 0 1 15.39 -13.74)"  >
<path style="stroke: rgb(9,121,141); stroke-width: 1; stroke-dasharray: none; stroke-linecap: round; stroke-dashoffset: 0; stroke-linejoin: round; stroke-miterlimit: 4; fill: none; fill-rule: nonzero; opacity: 1;"  transform=" translate(-37.89, -13.26)" d="M 40.8943 14.6036 C 38.2623 15.2148 35.5773 13.9656 34.8943 11.7584" stroke-linecap="round" />
</g>
		<g transform="matrix(1 0 0 1 18.39 -0.24)"  >
<path style="stroke: rgb(9,121,141); stroke-width: 1; stroke-dasharray: none; stroke-linecap: round; stroke-dashoffset: 0; stroke-linejoin: round; stroke-miterlimit: 4; fill: none; fill-rule: nonzero; opacity: 1;"  transform=" translate(-40.89, -26.76)" d="M 39.0932 29.7584 C 38.312 27.2694 39.8842 24.4487 42.8943 23.7584" stroke-linecap="round" />
</g>
		<g transform="matrix(1 0 0 1 -12.5 8.5)"  >
<path style="stroke: rgb(9,121,141); stroke-width: 1; stroke-dasharray: none; stroke-linecap: round; stroke-dashoffset: 0; stroke-linejoin: round; stroke-miterlimit: 4; fill: none; fill-rule: nonzero; opacity: 1;"  transform=" translate(-10, -35.5)" d="M 7 34.1591 C 9.6467 33.534 12.332 34.8065 13 37" stroke-linecap="round" />
</g>
		<g transform="matrix(1 0 0 1 0.89 -2.24)"  >
<ellipse style="stroke: rgb(9,121,141); stroke-width: 1; stroke-dasharray: none; stroke-linecap: round; stroke-dashoffset: 0; stroke-linejoin: round; stroke-miterlimit: 4; fill: none; fill-rule: nonzero; opacity: 1;"  cx="0" cy="0" rx="4.5" ry="6" />
</g>
</g>
</g>
</svg>