<svg width="17" height="24" viewBox="0 0 17 24" fill="none" xmlns="http://www.w3.org/2000/svg">
<path fill-rule="evenodd" clip-rule="evenodd" d="M8.50376 7.19086C7.53793 7.19086 6.61071 7.35628 5.74717 7.65743V4.68C5.74717 3.17286 6.98385 1.94657 8.50376 1.94657C10.0237 1.94657 11.2601 3.17286 11.2601 4.68C11.2601 5.15343 11.647 5.53714 12.1245 5.53714C12.6019 5.53714 12.9889 5.15343 12.9889 4.68C12.9889 2.22771 10.9768 0.232285 8.50376 0.232285C6.03041 0.232285 4.01835 2.22743 4.01835 4.68V8.49457C1.70376 9.96543 0.165405 12.5369 0.165405 15.4591C0.165405 20.0183 3.90598 23.7274 8.50376 23.7274C13.1015 23.7274 16.8421 20.0183 16.8421 15.4591C16.8421 10.9 13.1015 7.19086 8.50376 7.19086ZM8.50376 22.0134C4.85942 22.0134 1.89422 19.0731 1.89422 15.4594C1.89422 11.8457 4.85942 8.90543 8.50376 8.90543C12.1481 8.90543 15.1133 11.8457 15.1133 15.4594C15.1133 19.0731 12.1481 22.0134 8.50376 22.0134Z" fill="#D2D2D2"/>
<path fill-rule="evenodd" clip-rule="evenodd" d="M8.50373 11.5057C6.56285 11.5057 4.98358 13.0714 4.98358 14.9963C4.98358 15.8451 5.29794 16.664 5.85663 17.2968V17.3731C5.85663 18.498 6.77953 19.4128 7.91392 19.4128H9.09355C10.2279 19.4128 11.1505 18.498 11.1505 17.3731V17.2968C11.7095 16.6637 12.0239 15.8451 12.0239 14.9963C12.0236 13.0714 10.4446 11.5057 8.50373 11.5057ZM9.70584 16.3128C9.52489 16.4754 9.42173 16.706 9.42173 16.9483V17.3734C9.42173 17.5528 9.2745 17.6988 9.09355 17.6988H7.91392C7.73297 17.6988 7.58545 17.5528 7.58545 17.3734V16.9483C7.58545 16.7063 7.48229 16.4754 7.30134 16.3128C6.92706 15.9766 6.7124 15.4968 6.7124 14.9963C6.7124 14.0168 7.51601 13.22 8.50373 13.22C9.49146 13.22 10.2951 14.0168 10.2951 14.9963C10.2948 15.4966 10.0801 15.9763 9.70584 16.3128Z" fill="#D2D2D2"/>
</svg>
